<svg xmlns="http://www.w3.org/2000/svg" viewBox="0 0 97.795 126.092"><path fill="#fff" class="st0" d="M93.543 70.816H90.71a1.417 1.417 0 0 1-1.418-1.417v-2.835a4.252 4.252 0 1 0-8.504 0v25.512a4.252 4.252 0 0 0 8.504 0V80.737c0-.783.635-1.417 1.418-1.417h2.834a4.252 4.252 0 1 0 0-8.504zM21.26 87.824h-5.032a.709.709 0 0 1-.501-1.21l8.54-8.54a4.251 4.251 0 0 0-3.007-7.258H4.252a4.252 4.252 0 1 0 0 8.504h5.032a.708.708 0 0 1 .5 1.21l-8.539 8.54a4.252 4.252 0 0 0 3.007 7.258H21.26a4.252 4.252 0 1 0 0-8.504zm45.354-17.008H58.11a4.252 4.252 0 0 0-4.252 4.252v25.512a4.252 4.252 0 0 0 8.504 0V80.737c0-.783.635-1.417 1.418-1.417h2.834c2.345 0 4.252 1.907 4.252 4.252s-1.907 4.252-4.251 4.252h-1.418c-.783 0-1.417.634-1.417 1.417v5.67c0 .782.634 1.417 1.417 1.417h1.417c7.045 0 12.756-5.711 12.756-12.756S73.66 70.816 66.614 70.816zm-15.59 17.008H38.268a4.257 4.257 0 0 1-4.252-4.252 4.257 4.257 0 0 1 4.252-4.252h2.834c.783 0 1.418.634 1.418 1.417v4.252c0 .783.634 1.417 1.417 1.417h5.67c.782 0 1.417-.634 1.417-1.417v-9.921a4.252 4.252 0 0 0-4.252-4.252h-8.504c-7.045 0-12.756 5.71-12.756 12.756 0 7.045 5.71 12.756 12.756 12.756h12.756c.782 0 1.417-.635 1.417-1.418v-5.669c0-.783-.635-1.417-1.417-1.417zM73.371 117.208a1.417 1.417 0 1 0 2.005-2.004 6.378 6.378 0 1 0 0 9.02 1.417 1.417 0 0 0-2.004-2.005 3.548 3.548 0 0 1-5.011 0c-1.382-1.381-1.382-3.63 0-5.011s3.629-1.381 5.01 0zm-15.97-3.872c-1.76 0-3.355.713-4.51 1.868s-1.867 2.748-1.867 4.51c0 1.76.713 3.355 1.868 4.51a6.358 6.358 0 0 0 4.51 1.867 6.358 6.358 0 0 0 4.51-1.868 1.417 1.417 0 0 0-2.005-2.004l.002-.005-.003.004a3.532 3.532 0 0 1-2.505 1.039 3.532 3.532 0 0 1-2.504-1.04c-.31-.31-.562-.678-.74-1.086h8.205c.783 0 1.418-.635 1.418-1.418a6.358 6.358 0 0 0-1.869-4.51 6.358 6.358 0 0 0-4.51-1.867zm-3.245 4.96c.179-.407.43-.776.741-1.087a3.532 3.532 0 0 1 2.504-1.039c.977 0 1.863.397 2.505 1.04.31.31.562.679.74 1.086h-6.49zm28.757-4.96c-1.311 0-2.53.396-3.543 1.075v-3.91a1.417 1.417 0 0 0-2.835 0v14.173a1.417 1.417 0 1 0 2.835 0v-4.964a3.548 3.548 0 0 1 3.543-3.54 3.548 3.548 0 0 1 3.544 3.543v4.961a1.417 1.417 0 1 0 2.834 0v-4.96a6.378 6.378 0 0 0-6.378-6.378zm-31.18 2.126c0-.783-.635-1.418-1.418-1.418h-1.417a.709.709 0 0 1-.709-.709v-2.834a1.417 1.417 0 1 0-2.835 0v2.834a.709.709 0 0 1-.708.71h-1.418a1.418 1.418 0 0 0 0 2.834h1.418c.391 0 .708.317.708.709v7.086a1.417 1.417 0 1 0 2.835 0v-7.086c0-.392.317-.71.709-.71h1.416v.001c.784 0 1.418-.635 1.418-1.417zM67.333 36.85a8.45 8.45 0 0 0-5.614 2.125 8.491 8.491 0 0 1-5.627 2.127H45.88a2.126 2.126 0 0 1-1.503-3.629l18.014-18.014a8.5 8.5 0 0 1 5.483-2.474 8.45 8.45 0 0 0 5.472-2.468A8.504 8.504 0 0 0 67.333 0a8.45 8.45 0 0 0-5.614 2.124 8.491 8.491 0 0 1-5.627 2.128H41.724a8.5 8.5 0 0 1-5.627-2.128A8.45 8.45 0 0 0 30.483 0a8.504 8.504 0 1 0 0 17.008 8.45 8.45 0 0 0 5.614-2.125 8.49 8.49 0 0 1 5.627-2.127h10.211a2.126 2.126 0 0 1 1.503 3.63L35.425 34.398a8.5 8.5 0 0 1-5.484 2.474 8.45 8.45 0 0 0-5.472 2.468 8.504 8.504 0 0 0 6.013 14.517 8.451 8.451 0 0 0 5.615-2.124 8.49 8.49 0 0 1 5.627-2.128h14.368a8.5 8.5 0 0 1 5.627 2.128 8.45 8.45 0 0 0 5.614 2.124 8.504 8.504 0 0 0 0-17.008zm0-31.18a2.838 2.838 0 0 1 2.835 2.834 2.838 2.838 0 0 1-2.835 2.835 2.838 2.838 0 0 1-2.835-2.835 2.838 2.838 0 0 1 2.835-2.835zm-36.85 5.669a2.838 2.838 0 0 1-2.835-2.835c0-1.563 1.271-2.834 2.834-2.834s2.835 1.271 2.835 2.834a2.838 2.838 0 0 1-2.835 2.835zm0 36.85a2.838 2.838 0 0 1-2.835-2.834 2.838 2.838 0 0 1 2.834-2.835 2.838 2.838 0 0 1 2.835 2.835 2.838 2.838 0 0 1-2.835 2.834zm36.85 0a2.838 2.838 0 0 1-2.835-2.834 2.838 2.838 0 0 1 2.835-2.835 2.838 2.838 0 0 1 2.835 2.835 2.838 2.838 0 0 1-2.835 2.834z"/></svg>